<svg width="24" height="24" viewBox="0 0 24 24" fill="none" xmlns="http://www.w3.org/2000/svg">
<path d="M19.4578 4.59133C18.9691 4.08683 18.3889 3.68663 17.7503 3.41358C17.1117 3.14054 16.4272 3 15.7359 3C15.0446 3 14.3601 3.14054 13.7215 3.41358C13.0829 3.68663 12.5026 4.08683 12.0139 4.59133L10.9997 5.63785L9.98554 4.59133C8.99842 3.57276 7.6596 3.00053 6.26361 3.00053C4.86761 3.00053 3.52879 3.57276 2.54168 4.59133C1.55456 5.6099 1 6.99139 1 8.43187C1 9.87235 1.55456 11.2538 2.54168 12.2724L3.55588 13.3189L10.9997 21L18.4436 13.3189L19.4578 12.2724C19.9467 11.7681 20.3346 11.1694 20.5992 10.5105C20.8638 9.85148 21 9.14517 21 8.43187C21 7.71857 20.8638 7.01225 20.5992 6.35328C20.3346 5.69431 19.9467 5.09559 19.4578 4.59133V4.59133Z" stroke="#FBFAFC" stroke-width="2" stroke-linecap="round" stroke-linejoin="round"/>
</svg>
