<svg width="36" height="36" viewBox="0 0 36 36" fill="none" xmlns="http://www.w3.org/2000/svg">
<path d="M18.4556 9.01562C13.4556 9.01562 9.47119 13.0781 9.47119 18C9.47119 23 13.4556 26.9844 18.4556 26.9844C23.3774 26.9844 27.4399 23 27.4399 18C27.4399 13.0781 23.3774 9.01562 18.4556 9.01562ZM18.4556 23.8594C15.2524 23.8594 12.5962 21.2812 12.5962 18C12.5962 14.7969 15.1743 12.2188 18.4556 12.2188C21.6587 12.2188 24.2368 14.7969 24.2368 18C24.2368 21.2812 21.6587 23.8594 18.4556 23.8594ZM29.8618 8.70312C29.8618 7.53125 28.9243 6.59375 27.7524 6.59375C26.5806 6.59375 25.6431 7.53125 25.6431 8.70312C25.6431 9.875 26.5806 10.8125 27.7524 10.8125C28.9243 10.8125 29.8618 9.875 29.8618 8.70312ZM35.7993 10.8125C35.6431 8 35.0181 5.5 32.9868 3.46875C30.9556 1.4375 28.4556 0.8125 25.6431 0.65625C22.7524 0.5 14.0806 0.5 11.1899 0.65625C8.37744 0.8125 5.95557 1.4375 3.84619 3.46875C1.81494 5.5 1.18994 8 1.03369 10.8125C0.877441 13.7031 0.877441 22.375 1.03369 25.2656C1.18994 28.0781 1.81494 30.5 3.84619 32.6094C5.95557 34.6406 8.37744 35.2656 11.1899 35.4219C14.0806 35.5781 22.7524 35.5781 25.6431 35.4219C28.4556 35.2656 30.9556 34.6406 32.9868 32.6094C35.0181 30.5 35.6431 28.0781 35.7993 25.2656C35.9556 22.375 35.9556 13.7031 35.7993 10.8125ZM32.0493 28.3125C31.5024 29.875 30.2524 31.0469 28.7681 31.6719C26.4243 32.6094 20.9556 32.375 18.4556 32.375C15.8774 32.375 10.4087 32.6094 8.14307 31.6719C6.58057 31.0469 5.40869 29.875 4.78369 28.3125C3.84619 26.0469 4.08057 20.5781 4.08057 18C4.08057 15.5 3.84619 10.0312 4.78369 7.6875C5.40869 6.20312 6.58057 5.03125 8.14307 4.40625C10.4087 3.46875 15.8774 3.70312 18.4556 3.70312C20.9556 3.70312 26.4243 3.46875 28.7681 4.40625C30.2524 4.95312 31.4243 6.20312 32.0493 7.6875C32.9868 10.0312 32.7524 15.5 32.7524 18C32.7524 20.5781 32.9868 26.0469 32.0493 28.3125Z" fill="#FBFAFC"/>
</svg>
