<svg width="44" height="30" viewBox="0 0 44 30" fill="none" xmlns="http://www.w3.org/2000/svg">
<path d="M42.7642 4.76562C42.2954 2.89062 40.811 1.40625 39.0142 0.9375C35.6548 0 22.3735 0 22.3735 0C22.3735 0 9.01416 0 5.65479 0.9375C3.85791 1.40625 2.37354 2.89062 1.90479 4.76562C0.967285 8.04688 0.967285 15.0781 0.967285 15.0781C0.967285 15.0781 0.967285 22.0312 1.90479 25.3906C2.37354 27.2656 3.85791 28.6719 5.65479 29.1406C9.01416 30 22.3735 30 22.3735 30C22.3735 30 35.6548 30 39.0142 29.1406C40.811 28.6719 42.2954 27.2656 42.7642 25.3906C43.7017 22.0312 43.7017 15.0781 43.7017 15.0781C43.7017 15.0781 43.7017 8.04688 42.7642 4.76562ZM17.9985 21.4062V8.75L29.0923 15.0781L17.9985 21.4062Z" fill="#FBFAFC"/>
</svg>
